<mxfile host="app.diagrams.net" modified="2023-08-28T12:28:51.265Z" agent="Mozilla/5.0 (X11; Linux x86_64) AppleWebKit/537.36 (KHTML, like Gecko) Chrome/111.0.0.0 Safari/537.36" version="21.6.9" etag="zNcSKXVNtZ8CrJN0T2D5" type="github">
  <diagram name="PÃ¡gina-1" id="wflLqx-DlOXQYL88QLPV">
    <mxGraphModel>
      <root>
        <mxCell id="0" />
        <mxCell id="1" parent="0" />
      </root>
    </mxGraphModel>
  </diagram>
</mxfile>
